<svg width="189" height="47" viewBox="0 0 189 47" fill="none" xmlns="http://www.w3.org/2000/svg">
<path d="M47 23.5C47 36.4787 36.4787 47 23.5 47C10.5213 47 0 36.4787 0 23.5C0 10.5213 10.5213 0 23.5 0C36.4787 0 47 10.5213 47 23.5Z" fill="#1FD031"/>
<path d="M30.9221 16.9007C28.9023 10.9911 16.784 12.1812 15 17.8856C15 24.9852 30.9221 20.8403 31.9319 27.7348C32.9418 34.6292 22.4995 38.4743 15 30.6895" stroke="white" stroke-width="3"/>
<line x1="23.5" y1="8" x2="23.5" y2="39" stroke="white" stroke-width="3"/>
<path d="M67.7045 32H61.517V14.5455H67.7557C69.5114 14.5455 71.0227 14.8949 72.2898 15.5938C73.5568 16.2869 74.5313 17.2841 75.2131 18.5852C75.9006 19.8864 76.2443 21.4432 76.2443 23.2557C76.2443 25.0739 75.9006 26.6364 75.2131 27.9432C74.5313 29.25 73.5511 30.2528 72.2727 30.9517C71 31.6506 69.4773 32 67.7045 32ZM65.2074 28.8381H67.5511C68.642 28.8381 69.5597 28.6449 70.304 28.2585C71.054 27.8665 71.6165 27.2614 71.9915 26.4432C72.3722 25.6193 72.5625 24.5568 72.5625 23.2557C72.5625 21.9659 72.3722 20.9119 71.9915 20.0938C71.6165 19.2756 71.0568 18.6733 70.3125 18.2869C69.5682 17.9006 68.6506 17.7074 67.5597 17.7074H65.2074V28.8381ZM77.5163 17.5881V14.5455H91.8516V17.5881H86.5078V32H82.8601V17.5881H77.5163ZM99.767 14.5455H104.318L109.125 26.2727H109.33L114.136 14.5455H118.688V32H115.108V20.6392H114.963L110.446 31.9148H108.009L103.491 20.5966H103.347V32H99.767V14.5455ZM137.768 23.2727C137.768 25.1761 137.407 26.7955 136.685 28.1307C135.969 29.4659 134.992 30.4858 133.754 31.1903C132.521 31.8892 131.134 32.2386 129.594 32.2386C128.043 32.2386 126.651 31.8864 125.418 31.1818C124.185 30.4773 123.211 29.4574 122.495 28.1222C121.779 26.7869 121.421 25.1705 121.421 23.2727C121.421 21.3693 121.779 19.75 122.495 18.4148C123.211 17.0795 124.185 16.0625 125.418 15.3636C126.651 14.6591 128.043 14.3068 129.594 14.3068C131.134 14.3068 132.521 14.6591 133.754 15.3636C134.992 16.0625 135.969 17.0795 136.685 18.4148C137.407 19.75 137.768 21.3693 137.768 23.2727ZM134.026 23.2727C134.026 22.0398 133.842 21 133.472 20.1534C133.109 19.3068 132.594 18.6648 131.93 18.2273C131.265 17.7898 130.487 17.571 129.594 17.571C128.702 17.571 127.924 17.7898 127.259 18.2273C126.594 18.6648 126.077 19.3068 125.708 20.1534C125.344 21 125.163 22.0398 125.163 23.2727C125.163 24.5057 125.344 25.5455 125.708 26.392C126.077 27.2386 126.594 27.8807 127.259 28.3182C127.924 28.7557 128.702 28.9744 129.594 28.9744C130.487 28.9744 131.265 28.7557 131.93 28.3182C132.594 27.8807 133.109 27.2386 133.472 26.392C133.842 25.5455 134.026 24.5057 134.026 23.2727ZM155.101 14.5455V32H151.913L144.32 21.0142H144.192V32H140.501V14.5455H143.74L151.274 25.5227H151.428V14.5455H155.101ZM158.15 32V14.5455H169.911V17.5881H161.84V21.7472H169.306V24.7898H161.84V28.9574H169.945V32H158.15ZM171.822 14.5455H175.956L179.936 22.0625H180.107L184.087 14.5455H188.22L181.854 25.8295V32H178.189V25.8295L171.822 14.5455Z" fill="white"/>
</svg>
